<svg width="84" height="83" viewBox="0 0 84 83" fill="none" xmlns="http://www.w3.org/2000/svg">
<circle cx="42.0001" cy="41.3641" r="41.3045" fill="url(#paint0_linear_10_20)"/>
<mask id="mask0_10_20" style="mask-type:alpha" maskUnits="userSpaceOnUse" x="18" y="18" width="48" height="47">
<rect x="18.8623" y="18.2266" width="46.2755" height="46.2755" fill="#D9D9D9"/>
</mask>
<g mask="url(#mask0_10_20)">
<path d="M42 61.2758C37.4714 61.2758 33.6078 60.6784 30.409 59.4836C27.2102 58.2884 25.6108 56.6365 25.6108 54.5278C25.6108 53.5733 25.9723 52.7111 26.6954 51.9412C27.4184 51.1712 28.4079 50.5143 29.6637 49.9706L32.018 52.0805C31.0613 52.3745 30.2364 52.7409 29.5432 53.1795C28.8497 53.6185 28.503 54.0679 28.503 54.5278C28.503 55.4372 29.786 56.3073 32.3521 57.138C34.9178 57.9687 38.1338 58.384 42 58.384C45.8663 58.384 49.0822 57.9687 51.648 57.138C54.214 56.3073 55.497 55.4372 55.497 54.5278C55.497 54.0679 55.1503 53.6185 54.4568 53.1795C53.7636 52.7409 52.9387 52.3745 51.982 52.0805L54.3363 49.9706C55.5921 50.5143 56.5816 51.1712 57.3046 51.9412C58.0277 52.7111 58.3892 53.5733 58.3892 54.5278C58.3892 56.6365 56.7898 58.2884 53.591 59.4836C50.3923 60.6784 46.5286 61.2758 42 61.2758ZM42 54.0824C41.4097 54.0824 40.8394 53.9774 40.2893 53.7676C39.7391 53.5574 39.2341 53.2545 38.7742 52.859L26.6269 42.1283C26.3081 41.8488 26.0591 41.5165 25.8798 41.1315C25.7004 40.7465 25.6108 40.3495 25.6108 39.9404V36.1212C25.6108 35.7034 25.6844 35.2981 25.8316 34.905C25.9787 34.512 26.2117 34.1759 26.5305 33.8966L38.7149 22.55C39.1623 22.1226 39.6673 21.8018 40.23 21.5878C40.7927 21.3741 41.3822 21.2673 41.9986 21.2673C42.6149 21.2673 43.2049 21.3741 43.7686 21.5878C44.3323 21.8018 44.8378 22.1226 45.2851 22.55L57.4695 33.8966C57.7883 34.1759 58.0213 34.512 58.1685 34.905C58.3156 35.2981 58.3892 35.7034 58.3892 36.1212V39.9404C58.3892 40.3495 58.2996 40.7465 58.1203 41.1315C57.9409 41.5165 57.6919 41.8488 57.3731 42.1283L45.2258 52.859C44.7659 53.2545 44.2609 53.5574 43.7107 53.7676C43.1606 53.9774 42.5903 54.0824 42 54.0824ZM41.8626 45.9846C42.317 45.9846 42.7472 45.9091 43.153 45.7581C43.5586 45.6074 43.9378 45.3713 44.2906 45.05L54.974 35.5539L43.3497 24.6786C43.137 24.5054 42.9181 24.3756 42.6932 24.2892C42.4682 24.2027 42.2272 24.1595 41.9701 24.1595C41.713 24.1595 41.472 24.2027 41.2471 24.2892C41.0221 24.3756 40.8232 24.5054 40.6503 24.6786L28.8703 35.7096L39.4312 45.0837C39.7867 45.4073 40.1671 45.6384 40.5727 45.7769C40.9786 45.9154 41.4085 45.9846 41.8626 45.9846ZM36.218 37.9901C36.8417 37.9901 37.3681 37.7748 37.7971 37.3441C38.2258 36.9135 38.4402 36.3863 38.4402 35.7626C38.4402 35.1391 38.2249 34.6129 37.7942 34.1839C37.3636 33.7549 36.8366 33.5404 36.2132 33.5404C35.5894 33.5404 35.063 33.7557 34.634 34.1863C34.2053 34.6169 33.991 35.1441 33.991 35.7679C33.991 36.3916 34.2063 36.9179 34.6369 37.3465C35.0675 37.7756 35.5945 37.9901 36.218 37.9901ZM38.9593 40.7044C40.2795 41.2928 41.6565 41.4633 43.0904 41.2159C44.5239 40.9687 45.7883 40.3618 46.8835 39.3952C47.9019 38.5128 48.5767 37.414 48.9081 36.099C49.2391 34.784 49.129 33.5184 48.5779 32.302L38.9593 40.7044ZM42.0024 32.2056C42.6262 32.2056 43.1526 31.9903 43.5816 31.5597C44.0103 31.1291 44.2246 30.6019 44.2246 29.9781C44.2246 29.3547 44.0093 28.8285 43.5787 28.3995C43.1481 27.9705 42.621 27.756 41.9976 27.756C41.3738 27.756 40.8475 27.9713 40.4184 28.4019C39.9898 28.8325 39.7754 29.3597 39.7754 29.9834C39.7754 30.6072 39.9907 31.1334 40.4213 31.5621C40.852 31.9911 41.379 32.2056 42.0024 32.2056Z" fill="#1C1B1F"/>
</g>
<defs>
<linearGradient id="paint0_linear_10_20" x1="42.0001" y1="0.0595703" x2="42.0001" y2="82.6686" gradientUnits="userSpaceOnUse">
<stop stop-color="white"/>
<stop offset="1" stop-color="white" stop-opacity="0.4"/>
</linearGradient>
</defs>
</svg>
