<svg width="84" height="84" viewBox="0 0 84 84" fill="none" xmlns="http://www.w3.org/2000/svg">
<circle cx="41.8103" cy="42.2552" r="41.3045" fill="url(#paint0_linear_10_40)"/>
<mask id="mask0_10_40" style="mask-type:alpha" maskUnits="userSpaceOnUse" x="18" y="19" width="47" height="47">
<rect x="18.6725" y="19.1177" width="46.2755" height="46.2755" fill="#D9D9D9"/>
</mask>
<g mask="url(#mask0_10_40)">
<path d="M58.7109 40.2752V55.6411C58.7109 56.6151 58.3735 57.4396 57.6986 58.1144C57.0238 58.7893 56.1995 59.1267 55.2258 59.1267H28.454C27.4803 59.1267 26.656 58.7893 25.9811 58.1144C25.3063 57.4396 24.9689 56.6151 24.9689 55.6411V40.2381C24.1925 39.6005 23.6097 38.773 23.2205 37.7556C22.831 36.7385 22.823 35.6404 23.1964 34.4614L25.1467 28.0908C25.4038 27.28 25.8401 26.6262 26.4555 26.1294C27.0712 25.6326 27.8066 25.3842 28.6617 25.3842H54.9809C55.8364 25.3842 56.5668 25.6215 57.1722 26.0961C57.778 26.5708 58.2192 27.2234 58.4959 28.0542L60.4833 34.4614C60.8568 35.6404 60.8487 36.7348 60.4592 37.7445C60.0701 38.7545 59.4873 39.5981 58.7109 40.2752ZM46.082 38.8812C47.1351 38.8812 47.9268 38.5592 48.457 37.9152C48.9873 37.2712 49.2042 36.5796 49.1078 35.8405L47.9359 28.2764H43.2857V35.8925C43.2857 36.7033 43.5602 37.4042 44.1091 37.9952C44.6579 38.5858 45.3156 38.8812 46.082 38.8812ZM37.4054 38.8812C38.2927 38.8812 39.0125 38.5858 39.5649 37.9952C40.1176 37.4042 40.394 36.7033 40.394 35.8925V28.2764H35.7438L34.5725 35.9147C34.4683 36.5995 34.6833 37.2652 35.2174 37.9118C35.7515 38.558 36.4808 38.8812 37.4054 38.8812ZM28.8251 38.8812C29.5395 38.8812 30.1538 38.6321 30.668 38.134C31.1821 37.6359 31.4998 37.0099 31.621 36.256L32.7552 28.2764H28.6617C28.4516 28.2764 28.2848 28.3226 28.1614 28.4152C28.0377 28.5081 27.9449 28.6472 27.8832 28.8326L26.0288 35.1063C25.7743 35.9345 25.8944 36.7706 26.3889 37.6149C26.8832 38.4591 27.6952 38.8812 28.8251 38.8812ZM54.8551 38.8812C55.8982 38.8812 56.6966 38.4714 57.2503 37.652C57.804 36.8325 57.9375 35.984 57.6509 35.1063L55.7001 28.7955C55.6384 28.6101 55.5459 28.4772 55.4225 28.3969C55.2987 28.3165 55.1318 28.2764 54.9216 28.2764H50.9246L52.0588 36.256C52.18 37.0099 52.4976 37.6359 53.0118 38.134C53.526 38.6321 54.1404 38.8812 54.8551 38.8812ZM28.454 56.2345H55.2258C55.3987 56.2345 55.5407 56.1789 55.6519 56.0677C55.7634 55.9565 55.8192 55.8143 55.8192 55.6411V41.6027C55.609 41.6795 55.4334 41.7271 55.2923 41.7454C55.1515 41.7641 55.0058 41.7734 54.8551 41.7734C53.9874 41.7734 53.2242 41.6164 52.5654 41.3024C51.9066 40.9885 51.2681 40.4854 50.6498 39.7932C50.1086 40.3964 49.4685 40.8773 48.7294 41.2359C47.9903 41.5942 47.1473 41.7734 46.2006 41.7734C45.3824 41.7734 44.6112 41.6034 43.8868 41.2634C43.1625 40.9237 42.4803 40.4336 41.8401 39.7932C41.2443 40.4336 40.5695 40.9237 39.8156 41.2634C39.0613 41.6034 38.2975 41.7734 37.524 41.7734C36.6537 41.7734 35.838 41.6158 35.0767 41.3005C34.3154 40.9853 33.6455 40.4828 33.0671 39.7932C32.256 40.604 31.5086 41.1368 30.8251 41.3916C30.1419 41.6461 29.4752 41.7734 28.8251 41.7734C28.6741 41.7734 28.5182 41.7641 28.3576 41.7454C28.1969 41.7271 28.0312 41.6795 27.8606 41.6027V55.6411C27.8606 55.8143 27.9163 55.9565 28.0279 56.0677C28.139 56.1789 28.2811 56.2345 28.454 56.2345Z" fill="#1C1B1F"/>
</g>
<defs>
<linearGradient id="paint0_linear_10_40" x1="41.8103" y1="0.950684" x2="41.8103" y2="83.5598" gradientUnits="userSpaceOnUse">
<stop stop-color="white"/>
<stop offset="1" stop-color="white" stop-opacity="0.4"/>
</linearGradient>
</defs>
</svg>
