<svg width="84" height="84" viewBox="0 0 84 84" fill="none" xmlns="http://www.w3.org/2000/svg">
<circle cx="42.1899" cy="42.255" r="40.8045" fill="url(#paint0_linear_10_30)" stroke="black"/>
<mask id="mask0_10_30" style="mask-type:alpha" maskUnits="userSpaceOnUse" x="19" y="19" width="47" height="47">
<rect x="19.0521" y="19.1174" width="46.2755" height="46.2755" fill="#D9D9D9"/>
</mask>
<g mask="url(#mask0_10_30)">
<path d="M29.2862 58.6444C28.3247 58.6444 27.5033 58.3039 26.8221 57.623C26.1411 56.9417 25.8006 56.1203 25.8006 55.1588V29.3516C25.8006 28.3901 26.1411 27.5687 26.8221 26.8874C27.5033 26.2064 28.3247 25.866 29.2862 25.866H55.0935C56.055 25.866 56.8764 26.2064 57.5576 26.8874C58.2386 27.5687 58.5791 28.3901 58.5791 29.3516V34.5985H55.6869V29.3516C55.6869 29.1784 55.6313 29.0362 55.5201 28.925C55.4089 28.8138 55.2667 28.7582 55.0935 28.7582H29.2862C29.113 28.7582 28.9708 28.8138 28.8596 28.925C28.7484 29.0362 28.6928 29.1784 28.6928 29.3516V55.1588C28.6928 55.332 28.7484 55.4742 28.8596 55.5854C28.9708 55.6966 29.113 55.7522 29.2862 55.7522H55.0935C55.2667 55.7522 55.4089 55.6966 55.5201 55.5854C55.6313 55.4742 55.6869 55.332 55.6869 55.1588V49.9119H58.5791V55.1588C58.5791 56.1203 58.2386 56.9417 57.5576 57.623C56.8764 58.3039 56.055 58.6444 55.0935 58.6444H29.2862ZM44.7114 50.9318C43.7499 50.9318 42.9285 50.5914 42.2472 49.9104C41.5663 49.2291 41.2258 48.4077 41.2258 47.4462V37.0641C41.2258 36.1026 41.5663 35.2813 42.2472 34.6C42.9285 33.919 43.7499 33.5785 44.7114 33.5785H57.0216C57.9831 33.5785 58.8045 33.919 59.4858 34.6C60.1668 35.2813 60.5072 36.1026 60.5072 37.0641V47.4462C60.5072 48.4077 60.1668 49.2291 59.4858 49.9104C58.8045 50.5914 57.9831 50.9318 57.0216 50.9318H44.7114ZM57.0216 48.0396C57.1948 48.0396 57.337 47.984 57.4482 47.8728C57.5594 47.7617 57.615 47.6194 57.615 47.4462V37.0641C57.615 36.8909 57.5594 36.7487 57.4482 36.6375C57.337 36.5264 57.1948 36.4708 57.0216 36.4708H44.7114C44.5382 36.4708 44.396 36.5264 44.2848 36.6375C44.1736 36.7487 44.118 36.8909 44.118 37.0641V47.4462C44.118 47.6194 44.1736 47.7617 44.2848 47.8728C44.396 47.984 44.5382 48.0396 44.7114 48.0396H57.0216ZM49.9024 45.1474C50.7058 45.1474 51.3887 44.8662 51.9511 44.3038C52.5135 43.7415 52.7946 43.0586 52.7946 42.2552C52.7946 41.4518 52.5135 40.7689 51.9511 40.2065C51.3887 39.6442 50.7058 39.363 49.9024 39.363C49.099 39.363 48.4162 39.6442 47.8538 40.2065C47.2914 40.7689 47.0102 41.4518 47.0102 42.2552C47.0102 43.0586 47.2914 43.7415 47.8538 44.3038C48.4162 44.8662 49.099 45.1474 49.9024 45.1474Z" fill="#1C1B1F"/>
</g>
<defs>
<linearGradient id="paint0_linear_10_30" x1="42.1899" y1="0.950439" x2="42.1899" y2="83.5595" gradientUnits="userSpaceOnUse">
<stop stop-color="white"/>
<stop offset="1" stop-color="white" stop-opacity="0.4"/>
</linearGradient>
</defs>
</svg>
