<svg width="131" height="44" viewBox="0 0 131 44" fill="none" xmlns="http://www.w3.org/2000/svg">
<path d="M73.3231 13.2669V30.0189H69.9631V22.8909H62.7871V30.0189H59.4271V13.2669H62.7871V20.1549H69.9631V13.2669H73.3231ZM89.3502 16.7229L81.1182 36.3069H77.5422L80.4222 29.6829L75.0942 16.7229H78.8622L82.2942 26.0109L85.7742 16.7229H89.3502ZM94.5215 18.6429C94.9535 18.0349 95.5455 17.5309 96.2975 17.1309C97.0655 16.7149 97.9375 16.5069 98.9135 16.5069C100.049 16.5069 101.073 16.7869 101.985 17.3469C102.913 17.9069 103.641 18.7069 104.169 19.7469C104.713 20.7709 104.985 21.9629 104.985 23.3229C104.985 24.6829 104.713 25.8909 104.169 26.9469C103.641 27.9869 102.913 28.7949 101.985 29.3709C101.073 29.9469 100.049 30.2349 98.9135 30.2349C97.9375 30.2349 97.0735 30.0349 96.3215 29.6349C95.5855 29.2349 94.9855 28.7309 94.5215 28.1229V36.3549H91.1615V16.7229H94.5215V18.6429ZM101.553 23.3229C101.553 22.5229 101.385 21.8349 101.049 21.2589C100.729 20.6669 100.297 20.2189 99.7535 19.9149C99.2255 19.6109 98.6495 19.4589 98.0255 19.4589C97.4175 19.4589 96.8415 19.6189 96.2975 19.9389C95.7695 20.2429 95.3375 20.6909 95.0015 21.2829C94.6815 21.8749 94.5215 22.5709 94.5215 23.3709C94.5215 24.1709 94.6815 24.8669 95.0015 25.4589C95.3375 26.0509 95.7695 26.5069 96.2975 26.8269C96.8415 27.1309 97.4175 27.2829 98.0255 27.2829C98.6495 27.2829 99.2255 27.1229 99.7535 26.8029C100.297 26.4829 100.729 26.0269 101.049 25.4349C101.385 24.8429 101.553 24.1389 101.553 23.3229ZM119.787 23.0829C119.787 23.5629 119.755 23.9949 119.691 24.3789H109.971C110.051 25.3389 110.387 26.0909 110.979 26.6349C111.571 27.1789 112.299 27.4509 113.163 27.4509C114.411 27.4509 115.299 26.9149 115.827 25.8429H119.451C119.067 27.1229 118.331 28.1789 117.243 29.0109C116.155 29.8269 114.819 30.2349 113.235 30.2349C111.955 30.2349 110.803 29.9549 109.779 29.3949C108.771 28.8189 107.979 28.0109 107.403 26.9709C106.843 25.9309 106.563 24.7309 106.563 23.3709C106.563 21.9949 106.843 20.7869 107.403 19.7469C107.963 18.7069 108.747 17.9069 109.755 17.3469C110.763 16.7869 111.923 16.5069 113.235 16.5069C114.499 16.5069 115.627 16.7789 116.619 17.3229C117.627 17.8669 118.403 18.6429 118.947 19.6509C119.507 20.6429 119.787 21.7869 119.787 23.0829ZM116.307 22.1229C116.291 21.2589 115.979 20.5709 115.371 20.0589C114.763 19.5309 114.019 19.2669 113.139 19.2669C112.307 19.2669 111.603 19.5229 111.027 20.0349C110.467 20.5309 110.123 21.2269 109.995 22.1229H116.307ZM125.6 18.7869C126.032 18.0829 126.592 17.5309 127.28 17.1309C127.984 16.7309 128.784 16.5309 129.68 16.5309V20.0589H128.792C127.736 20.0589 126.936 20.3069 126.392 20.8029C125.864 21.2989 125.6 22.1629 125.6 23.3949V30.0189H122.24V16.7229H125.6V18.7869Z" fill="white"/>
<mask id="mask0_2021_2" style="mask-type:alpha" maskUnits="userSpaceOnUse" x="0" y="0" width="44" height="44">
<rect x="0.228882" y="0.545837" width="42.946" height="42.946" fill="#D9D9D9"/>
</mask>
<g mask="url(#mask0_2021_2)">
<path d="M3.80774 22.0188C3.80774 19.3944 4.31474 16.9637 5.32874 14.727C6.34275 12.4902 7.72955 10.5517 9.48914 8.91136C11.2487 7.27106 13.2767 6.02593 15.5732 5.17595C17.8696 4.32598 20.33 3.99047 22.9545 4.16941C23.4615 4.22905 23.8641 4.44528 24.1624 4.81807C24.4606 5.19087 24.565 5.63076 24.4755 6.13777C24.386 6.64477 24.14 7.04739 23.7374 7.34562C23.3348 7.64386 22.8799 7.77807 22.3729 7.74824C20.3151 7.65877 18.384 7.94955 16.5797 8.62058C14.7754 9.29161 13.1873 10.2832 11.8154 11.5955C10.4435 12.9077 9.36239 14.4511 8.57206 16.2256C7.78174 18.0001 7.38657 19.9312 7.38657 22.0188C7.38657 26.0152 8.77337 29.4002 11.547 32.1738C14.3206 34.9474 17.7055 36.3342 21.7019 36.3342C23.7597 36.3342 25.6759 35.939 27.4504 35.1487C29.2249 34.3584 30.7683 33.2773 32.0805 31.9054C33.4524 30.4738 34.4664 28.8485 35.1225 27.0292C35.7787 25.21 36.062 23.3162 35.9725 21.3478C35.9427 20.8408 36.0769 20.386 36.3751 19.9834C36.6734 19.5808 37.076 19.3347 37.583 19.2452C38.09 19.1558 38.5299 19.2602 38.9027 19.5584C39.2755 19.8566 39.4917 20.2593 39.5513 20.7663C39.7303 23.3609 39.3948 25.8064 38.5448 28.1029C37.6948 30.3993 36.4646 32.4273 34.8541 34.1869C33.1542 36.0359 31.1709 37.4526 28.9043 38.4367C26.6377 39.4209 24.2369 39.913 21.7019 39.913C19.2266 39.913 16.9003 39.4433 14.7232 38.5038C12.5461 37.5644 10.6523 36.2894 9.04178 34.679C7.43131 33.0685 6.15635 31.1747 5.21691 28.9976C4.27746 26.8204 3.80774 24.4942 3.80774 22.0188ZM32.4384 16.6506C30.9472 16.6506 29.6797 16.1287 28.6359 15.0849C27.5921 14.041 27.0702 12.7735 27.0702 11.2823C27.0702 9.79116 27.5921 8.52366 28.6359 7.47983C29.6797 6.436 30.9472 5.91409 32.4384 5.91409C33.9296 5.91409 35.1971 6.436 36.2409 7.47983C37.2848 8.52366 37.8067 9.79116 37.8067 11.2823C37.8067 12.7735 37.2848 14.041 36.2409 15.0849C35.1971 16.1287 33.9296 16.6506 32.4384 16.6506Z" fill="white"/>
</g>
</svg>
